<svg width="231" height="42" viewBox="0 0 231 42" fill="none" xmlns="http://www.w3.org/2000/svg">
<path d="M16.3244 6.77289V34.8466C16.3244 35.2443 16.225 35.5857 16.0234 35.8625C15.8245 36.142 15.5316 36.2817 15.1473 36.2817C14.8758 36.2817 14.6125 36.2172 14.3545 36.0909L3.19594 30.5143C2.86 30.3558 2.57513 30.087 2.344 29.7134C2.11556 29.3372 2 28.9663 2 28.6008V1.31724C2 0.997431 2.08062 0.725994 2.23919 0.502931C2.40044 0.279868 2.63156 0.166992 2.93525 0.166992C3.15831 0.166992 3.51038 0.28793 3.99144 0.527118L16.2545 6.65463C16.3002 6.70032 16.3244 6.74064 16.3244 6.77289Z" fill="#FF6100"/>
<path d="M17.8616 9.19141L30.6756 29.9148L17.8616 23.5508V9.19141ZM45 9.62141V34.8463C45 35.2441 44.8871 35.5693 44.6641 35.8165C44.441 36.0638 44.1373 36.1874 43.753 36.1874C43.3687 36.1874 42.9925 36.0826 42.6243 35.8757L32.0409 30.6108L45 9.62141Z" fill="#F5C9B0"/>
<path d="M44.9277 6.74833C44.9277 6.79671 42.8771 10.1427 38.7733 16.7889C34.6695 23.4351 32.2669 27.3239 31.5627 28.4553L22.2048 13.2817L29.9798 0.669188C30.2512 0.223062 30.6678 0 31.2268 0C31.4499 0 31.6595 0.0483763 31.8503 0.142439L44.831 6.60321C44.8955 6.63814 44.9277 6.68383 44.9277 6.74833Z" fill="#FF6100"/>
<path d="M54.8788 36H58.7988V23.288L64.0628 36H67.0308L72.2668 23.288V36H76.1868V16.456H71.7628L65.5468 30.988L59.3308 16.456H54.8788V36ZM77.9344 28.188C77.9344 33.032 81.0704 36.252 84.9904 36.252C87.4544 36.252 89.2184 35.076 90.1424 33.732V36H94.0904V20.488H90.1424V22.7C89.2184 21.412 87.5104 20.236 85.0184 20.236C81.0704 20.236 77.9344 23.344 77.9344 28.188ZM90.1424 28.244C90.1424 31.184 88.1824 32.808 86.0264 32.808C83.9264 32.808 81.9384 31.128 81.9384 28.188C81.9384 25.248 83.9264 23.68 86.0264 23.68C88.1824 23.68 90.1424 25.304 90.1424 28.244ZM108.839 31.576C108.727 25.892 100.131 27.656 100.131 24.828C100.131 23.932 100.887 23.344 102.343 23.344C103.883 23.344 104.835 24.156 104.947 25.36H108.699C108.475 22.28 106.207 20.236 102.455 20.236C98.6189 20.236 96.3229 22.308 96.3229 24.884C96.3229 30.568 105.087 28.804 105.087 31.576C105.087 32.472 104.247 33.172 102.707 33.172C101.139 33.172 100.047 32.276 99.9069 31.1H95.9589C96.1269 33.984 98.8429 36.252 102.735 36.252C106.515 36.252 108.839 34.236 108.839 31.576ZM132.637 36H136.557V26.9C136.557 22.616 133.925 20.264 130.201 20.264C127.933 20.264 125.889 21.468 124.881 23.232C123.817 21.3 121.829 20.264 119.421 20.264C117.489 20.264 115.837 21.076 114.857 22.364V20.488H110.937V36H114.857V27.432C114.857 24.968 116.229 23.68 118.357 23.68C120.429 23.68 121.801 24.968 121.801 27.432V36H125.721V27.432C125.721 24.968 127.093 23.68 129.193 23.68C131.265 23.68 132.637 24.968 132.637 27.432V36ZM138.149 28.188C138.149 33.032 141.285 36.252 145.205 36.252C147.669 36.252 149.433 35.076 150.357 33.732V36H154.305V20.488H150.357V22.7C149.433 21.412 147.725 20.236 145.233 20.236C141.285 20.236 138.149 23.344 138.149 28.188ZM150.357 28.244C150.357 31.184 148.397 32.808 146.241 32.808C144.141 32.808 142.153 31.128 142.153 28.188C142.153 25.248 144.141 23.68 146.241 23.68C148.397 23.68 150.357 25.304 150.357 28.244ZM169.053 31.576C168.941 25.892 160.345 27.656 160.345 24.828C160.345 23.932 161.101 23.344 162.557 23.344C164.097 23.344 165.049 24.156 165.161 25.36H168.913C168.689 22.28 166.421 20.236 162.669 20.236C158.833 20.236 156.537 22.308 156.537 24.884C156.537 30.568 165.301 28.804 165.301 31.576C165.301 32.472 164.461 33.172 162.921 33.172C161.353 33.172 160.261 32.276 160.121 31.1H156.173C156.341 33.984 159.057 36.252 162.949 36.252C166.729 36.252 169.053 34.236 169.053 31.576ZM183.443 36H187.363V16.456H183.443V24.492H175.071V16.456H171.151V36H175.071V27.684H183.443V36ZM204.745 20.488H200.797V29.028C200.797 31.52 199.453 32.864 197.325 32.864C195.253 32.864 193.881 31.52 193.881 29.028V20.488H189.961V29.588C189.961 33.844 192.565 36.196 196.177 36.196C198.109 36.196 199.817 35.356 200.797 34.04V36H204.745V20.488ZM211.413 22.756V15.28H207.493V36H211.413V33.788C212.365 35.132 214.101 36.252 216.537 36.252C220.513 36.252 223.621 33.032 223.621 28.188C223.621 23.344 220.513 20.236 216.537 20.236C214.185 20.236 212.365 21.328 211.413 22.756ZM219.617 28.188C219.617 31.128 217.629 32.808 215.501 32.808C213.401 32.808 211.413 31.184 211.413 28.244C211.413 25.304 213.401 23.68 215.501 23.68C217.629 23.68 219.617 25.248 219.617 28.188Z" fill="black"/>
</svg>
